<?xml version="1.0" standalone="no"?><!DOCTYPE svg PUBLIC "-//W3C//DTD SVG 1.1//EN" "http://www.w3.org/Graphics/SVG/1.1/DTD/svg11.dtd"><svg t="1588839213531" class="icon" viewBox="0 0 1024 1024" version="1.1" xmlns="http://www.w3.org/2000/svg" p-id="5265" width="200" height="200" xmlns:xlink="http://www.w3.org/1999/xlink"><defs><style type="text/css"></style></defs><path d="M925.527441 121.844826H97.797178a33.554143 33.554143 0 1 0 0 67.108286h827.730263a33.554143 33.554143 0 1 0 0-67.108286zM524.975497 222.005836c-0.143263-0.143263-0.286525-0.276292-0.429788-0.419555l-0.787944-0.787944c-0.153496-0.143263-0.276292-0.306991-0.440021-0.450254s-0.296758-0.245593-0.440021-0.368389l-0.777711-0.685614c-0.276292-0.23536-0.562817-0.460487-0.849342-0.685614s-0.665148-0.521885-1.023305-0.777711l-0.777711-0.562817c-0.286525-0.194428-0.583283-0.378623-0.880041-0.573051s-0.757245-0.491186-1.146101-0.716312l-0.757245-0.440021c-0.306991-0.173962-0.624216-0.327457-0.94144-0.491186s-0.818643-0.419555-1.238198-0.613983l-0.716313-0.327457c-0.33769-0.153496-0.685614-0.276292-1.023304-0.419555s-0.849342-0.33769-1.27913-0.480953l-0.70608-0.245593c-0.368389-0.122796-0.757245-0.225127-1.125635-0.327457s-0.849342-0.23536-1.268897-0.347923l-0.757245-0.173962c-0.388856-0.081864-0.777711-0.153496-1.166567-0.225127s-0.828876-0.153496-1.238198-0.204661l-0.869808-0.112563-1.135868-0.102331-1.187033-0.081864h-3.151776l-1.187033 0.081864-1.125635 0.102331-0.880041 0.112563c-0.419555 0.061398-0.828876 0.13303-1.248431 0.214894s-0.767478 0.13303-1.156334 0.214894l-0.757245 0.173962c-0.429788 0.10233-0.859575 0.225127-1.27913 0.347923s-0.747012 0.204661-1.115402 0.327457l-0.716313 0.245593c-0.440021 0.153496-0.859575 0.317224-1.299596 0.491186s-0.675381 0.255826-1.023304 0.409322l-0.726546 0.327457c-0.419555 0.194428-0.839109 0.409322-1.258664 0.624216s-0.613982 0.306991-0.910741 0.47072l-0.767478 0.440021c-0.388856 0.23536-0.777711 0.480953-1.156334 0.726545s-0.562817 0.358156-0.849342 0.552585l-0.798177 0.57305c-0.347923 0.255826-0.685614 0.521885-1.023305 0.787944l-0.80841 0.654915-0.798177 0.695847c-0.143263 0.13303-0.296758 0.23536-0.440021 0.368389s-0.296758 0.317224-0.450254 0.47072l-0.747012 0.757245c-0.143263 0.153496-0.306991 0.286525-0.450254 0.440021L162.725826 557.567734a33.554143 33.554143 0 1 0 49.1186 45.772395l255.079026-273.32454v541.256266a33.554143 33.554143 0 1 0 67.108286 0V330.015589L789.192629 603.340129a33.554143 33.554143 0 0 0 49.118599-45.772395z" p-id="5266" fill="#999999"></path></svg>