<?xml version="1.0" standalone="no"?><!DOCTYPE svg PUBLIC "-//W3C//DTD SVG 1.1//EN" "http://www.w3.org/Graphics/SVG/1.1/DTD/svg11.dtd"><svg t="1587284467781" class="icon" viewBox="0 0 1024 1024" version="1.1" xmlns="http://www.w3.org/2000/svg" p-id="6858" xmlns:xlink="http://www.w3.org/1999/xlink" width="200" height="200"><defs><style type="text/css"></style></defs><path d="M869.930667 631.317333l109.845333-329.536a29.866667 29.866667 0 0 0-28.416-39.424H244.458667L212.010667 67.712A29.973333 29.973333 0 0 0 182.464 42.666667H72.618667a29.973333 29.973333 0 0 0 0 59.925333h84.373333l105.685333 634.026667a29.866667 29.866667 0 0 0 29.546667 25.024h549.205333a29.952 29.952 0 1 0 0-59.904H317.674667l-8.32-49.941334h532.16a29.866667 29.866667 0 0 0 28.416-20.48z m-570.56-39.424l-44.928-269.610666h655.36l-89.877334 269.610666z" fill="#666666" p-id="6859"></path><path d="M347.221333 811.584a84.885333 84.885333 0 1 0 84.885334 84.864 84.970667 84.970667 0 0 0-84.885334-84.864z m0 109.845333a24.981333 24.981333 0 1 1 24.96-24.981333 25.002667 25.002667 0 0 1-24.96 24.981333z" fill="#666666" p-id="6860"></path><path d="M786.602667 811.584a84.885333 84.885333 0 1 0 84.885333 84.864 84.970667 84.970667 0 0 0-84.885333-84.864z m0 109.845333a24.981333 24.981333 0 1 1 24.96-24.981333 24.981333 24.981333 0 0 1-24.96 24.981333z" fill="#666666" p-id="6861"></path></svg>