<?xml version="1.0" standalone="no"?><!DOCTYPE svg PUBLIC "-//W3C//DTD SVG 1.1//EN" "http://www.w3.org/Graphics/SVG/1.1/DTD/svg11.dtd"><svg t="1587284483367" class="icon" viewBox="0 0 1024 1024" version="1.1" xmlns="http://www.w3.org/2000/svg" p-id="7727" xmlns:xlink="http://www.w3.org/1999/xlink" width="200" height="200"><defs><style type="text/css"></style></defs><path d="M508.9 763.8H345.1c-1 0-1.9 0.8-1.9 1.9v163.8c0 1 0.8 1.9 1.9 1.9h163.8c1 0 1.9-0.8 1.9-1.9V765.6c0-1-0.8-1.8-1.9-1.8zM844.1 763.8H680.2c-1 0-1.9 0.8-1.9 1.9v163.8c0 1 0.8 1.9 1.9 1.9H844c1 0 1.9-0.8 1.9-1.9V765.6c0-1-0.8-1.8-1.8-1.8zM277.5 261.1L214.4 92.7H64v112.2h73l74 197.5 65.8 263.3C283 690.5 305.4 708 331 708h471.3c25.6 0 48-17.5 54.2-42.3l101.1-404.5H277.5z" p-id="7728" fill="#666666"></path></svg>