<?xml version="1.0" standalone="no"?><!DOCTYPE svg PUBLIC "-//W3C//DTD SVG 1.1//EN" "http://www.w3.org/Graphics/SVG/1.1/DTD/svg11.dtd"><svg t="1587284738302" class="icon" viewBox="0 0 1024 1024" version="1.1" xmlns="http://www.w3.org/2000/svg" p-id="19678" xmlns:xlink="http://www.w3.org/1999/xlink" width="200" height="200"><defs><style type="text/css"></style></defs><path d="M510.103228 618.764849c147.613158 0 267.327259-119.7141 267.327258-267.327258 0-147.61217-119.643923-267.327259-267.327258-267.327259-147.682347 0-267.327259 119.715089-267.327259 267.327259 0 147.613158 119.715089 267.327259 267.327259 267.327258z m-155.774518 47.306626c-115.671475-57.401328-195.168865-176.738842-195.168864-314.632896C159.159846 157.591228 316.257853 0.494208 510.103228 0.494208 703.950579 0.494208 861.047598 157.592216 861.047598 351.437591c0 137.373158-78.896432 256.327166-193.856247 313.978563 115.728803 46.720494 229.480772 145.616556 341.547491 295.131429 13.096525 17.471259 9.550085 42.251861-7.922162 55.348386s-42.252849 9.548108-55.349375-7.924139C797.023876 809.926672 652.096247 713.249606 511.568062 713.249606c-140.529174 0-285.455815 96.677066-433.899243 294.722224-13.096525 17.472247-37.877127 21.019676-55.349375 7.924139-17.472247-13.096525-21.019676-37.876139-7.923151-55.349374C125.942116 811.727568 239.157375 713.057853 354.329699 666.071475z" p-id="19679" fill="#666666"></path></svg>