<?xml version="1.0" standalone="no"?><!DOCTYPE svg PUBLIC "-//W3C//DTD SVG 1.1//EN" "http://www.w3.org/Graphics/SVG/1.1/DTD/svg11.dtd"><svg t="1587284640065" class="icon" viewBox="0 0 1024 1024" version="1.1" xmlns="http://www.w3.org/2000/svg" p-id="12972" xmlns:xlink="http://www.w3.org/1999/xlink" width="200" height="200"><defs><style type="text/css"></style></defs><path d="M495.4 711.1H362.7c-18.2 0-33.2 14.9-33.2 33.2 0 18.2 14.9 33.2 33.2 33.2h132.7c18.2 0 33.2-14.9 33.2-33.2 0-18.3-14.9-33.2-33.2-33.2zM661.3 379.3H362.7c-18.2 0-33.2 14.9-33.2 33.2 0 18.2 14.9 33.2 33.2 33.2h298.7c18.2 0 33.2-14.9 33.2-33.2-0.1-18.3-15-33.2-33.3-33.2zM661.3 545.2H362.7c-18.2 0-33.2 14.9-33.2 33.2 0 18.2 14.9 33.2 33.2 33.2h298.7c18.2 0 33.2-14.9 33.2-33.2-0.1-18.3-15-33.2-33.3-33.2z" p-id="12973" fill="#666666"></path><path d="M727.7 130.4h-23.2C691.2 92.2 654.7 64 611.6 64H412.4c-43.1 0-79.6 28.2-92.9 66.4h-23.2c-91.3 0-165.9 74.7-165.9 165.9v497.8c0 91.3 74.7 165.9 165.9 165.9h431.4c91.3 0 165.9-74.7 165.9-165.9V296.3c0-91.3-74.6-165.9-165.9-165.9z m-315.3 0h199.1c18.3 0 33.2 14.9 33.2 33.2 0 18.2-14.9 33.2-33.2 33.2H412.4c-18.3 0-33.2-14.9-33.2-33.2 0.1-18.3 15-33.2 33.2-33.2z m414.9 663.7c0 54.8-44.8 99.6-99.6 99.6H296.3c-54.8 0-99.6-44.8-99.6-99.6V296.3c0-54.8 44.8-99.6 99.6-99.6h23.2c13.3 38.2 49.8 66.4 92.9 66.4h199.1c43.1 0 79.6-28.2 92.9-66.4h23.2c54.8 0 99.6 44.8 99.6 99.6v497.8z" p-id="12974" fill="#666666"></path></svg>