<?xml version="1.0" standalone="no"?><!DOCTYPE svg PUBLIC "-//W3C//DTD SVG 1.1//EN" "http://www.w3.org/Graphics/SVG/1.1/DTD/svg11.dtd"><svg t="1587284707354" class="icon" viewBox="0 0 1024 1024" version="1.1" xmlns="http://www.w3.org/2000/svg" p-id="16905" xmlns:xlink="http://www.w3.org/1999/xlink" width="200" height="200"><defs><style type="text/css"></style></defs><path d="M287.314 77.714c-2.484 6.806-3.922 14.664-3.922 22.857 0 37.836 30.643 68.513 68.465 68.572h320.28c37.819-0.053 68.457-30.723 68.457-68.548 0-8.202-1.441-16.068-4.082-23.357l72.631 0.477c50.514 0 91.429 41.051 91.429 91.429v731.428c0 50.495-40.934 91.429-91.429 91.429h-594.286c-50.492 0-91.429-41.051-91.429-91.429v-731.428c0-50.495 40.934-91.429 91.429-91.429h72.457zM283.428 386.286c0 19.063 15.383 34.285 34.355 34.285h388.434c19.154 0 34.355-15.36 34.355-34.285 0-19.063-15.383-34.285-34.355-34.285h-388.434c-19.154 0-34.355 15.36-34.355 34.285zM283.428 752c0 19.063 15.314 34.285 34.194 34.285h205.897c18.652 0 34.194-15.36 34.194-34.285 0-19.063-15.314-34.285-34.194-34.285h-205.897c-18.652 0-34.194 15.36-34.194 34.285zM283.428 569.142c0 19.063 15.383 34.285 34.355 34.285h388.434c19.154 0 34.355-15.36 34.355-34.285 0-19.063-15.383-34.285-34.355-34.285h-388.434c-19.154 0-34.355 15.36-34.355 34.285zM352 77.714c0-25.257 20.503-45.714 45.851-45.714h228.297c25.326 0 45.851 20.297 45.851 45.714 0 25.257-20.503 45.714-45.851 45.714h-228.297c-0.054 0-0.118 0-0.183 0-25.222 0-45.668-20.447-45.668-45.668 0-0.016 0-0.033 0-0.049z" p-id="16906" fill="#666666"></path></svg>